<svg width="400" height="264" viewBox="0 0 400 264" fill="none" xmlns="http://www.w3.org/2000/svg">
<path d="M316.109 231.407C262.614 231.407 228.571 263.5 228.571 263.5C228.571 263.5 262.614 249.922 316.109 249.922C369.605 249.922 400 263.5 400 263.5C400 263.5 369.605 231.407 316.109 231.407Z" fill="#F24405"/>
<path d="M106.991 241.281C32.8268 243.75 0 219.063 0 219.063C0 219.063 35.2584 263.5 106.991 263.5C178.723 263.5 235.366 216.491 297.872 205.056C340.244 197.304 397.568 219.063 397.568 219.063C397.568 219.063 369.605 185.735 297.872 185.736C226.14 185.736 181.155 238.813 106.991 241.281Z" fill="#F24405"/>
<path d="M179.939 0.582456C101.377 0.582456 37.69 63.5345 34.0426 141.299C34.0426 204.251 65.6535 239.724 65.6535 239.724C65.6535 239.724 73.0474 241.009 77.8115 241.281C83.9742 241.634 93.617 241.439 93.617 241.439C93.617 241.439 55.927 204.251 55.927 148.705C57.1429 112.909 69.3009 82.0498 91.1854 58.5971C121.581 27.7382 154.407 18.7729 179.939 17.8634C249.24 15.3947 310.03 68.4719 313.678 145.002C327.052 51.191 243.161 -1.88629 179.939 0.582456Z" fill="#F24405"/>
</svg>
